<?xml version="1.0" encoding="UTF-8"?>
<svg xmlns="http://www.w3.org/2000/svg" xmlns:xlink="http://www.w3.org/1999/xlink" width="16px" height="16px" viewBox="0 0 16 16" version="1.1">
<g id="surface1">
<path style="fill:none;stroke-width:38;stroke-linecap:butt;stroke-linejoin:miter;stroke:rgb(83.137255%,0%,0%);stroke-opacity:1;stroke-miterlimit:4;" d="M 98.041992 481.96875 C -7.530762 375.401367 -6.820312 203.614746 99.462891 97.899902 C 205.746094 -7.957031 377.674805 -7.672852 483.673828 98.326172 C 589.672852 204.325195 589.957031 376.253906 484.100098 482.537109 C 378.385254 588.820312 206.598633 589.530762 100.03125 483.958008 Z M 123.049805 456.960938 C 31.543945 364.460449 32.254395 215.408203 124.470703 123.760254 C 216.687012 32.112305 365.739258 32.254395 457.813477 124.186523 C 549.745605 216.260742 549.887695 365.312988 458.239746 457.529297 C 366.591797 549.745605 217.539551 550.456055 125.039062 458.950195 Z M 124.044434 457.955566 L 453.977051 128.022949 " transform="matrix(0.0274914,0,0,0.0274914,0,0)"/>
</g>
</svg>
